HIERARCHY
ROOT Hips
{
  OFFSET 40.0408 98.6151 11.9529
  CHANNELS 6 Xposition Yposition Zposition Zrotation Xrotation Yrotation
  JOINT spine
  {
    OFFSET 0 8.30103 0.477351
    CHANNELS 3 Zrotation Xrotation Yrotation
    JOINT spine1
    {
      OFFSET 0 10.4565 0
      CHANNELS 3 Zrotation Xrotation Yrotation
      JOINT spine2
      {
        OFFSET 0 10.0192 0
        CHANNELS 3 Zrotation Xrotation Yrotation
        JOINT Neck
        {
          OFFSET 0 25.7235 1.22641
          CHANNELS 3 Zrotation Xrotation Yrotation
          JOINT Head
          {
            OFFSET 0 7.77175 0
            CHANNELS 3 Zrotation Xrotation Yrotation
            End Site
            {
              OFFSET 0 18.812 -6.20394
            }
          }
        }
        JOINT RightShoulder
        {
          OFFSET -4.2188 10.82 -0.587439
          CHANNELS 3 Zrotation Xrotation Yrotation
          JOINT RightArm
          {
            OFFSET 0 14.1914 0
            CHANNELS 3 Zrotation Xrotation Yrotation
            JOINT RightArmRoll
            {
              OFFSET 0 7.16408 0
              CHANNELS 3 Zrotation Xrotation Yrotation
              JOINT RightForeArm
              {
                OFFSET 0 20.8665 0
                CHANNELS 3 Zrotation Xrotation Yrotation
                JOINT RightForeArmRoll
                {
                  OFFSET 0 8.03921 0
                  CHANNELS 3 Zrotation Xrotation Yrotation
                  JOINT RightHand
                  {
                    OFFSET 0 16.133 0
                    CHANNELS 3 Zrotation Xrotation Yrotation
                    End Site
                    {
                      OFFSET 0 0 0
                    }
                  }
                }
              }
            }
          }
        }
        JOINT LeftShoulder
        {
          OFFSET 4.2188 10.82 -0.587439
          CHANNELS 3 Zrotation Xrotation Yrotation
          JOINT LeftArm
          {
            OFFSET 0 14.1914 0
            CHANNELS 3 Zrotation Xrotation Yrotation
            JOINT LeftArmRoll
            {
              OFFSET 0 7.16408 0
              CHANNELS 3 Zrotation Xrotation Yrotation
              JOINT LeftForeArm
              {
                OFFSET 0 20.8665 0
                CHANNELS 3 Zrotation Xrotation Yrotation
                JOINT LeftForeArmRoll
                {
                  OFFSET 0 8.03921 0
                  CHANNELS 3 Zrotation Xrotation Yrotation
                  JOINT LeftHand
                  {
                    OFFSET 0 16.133 0
                    CHANNELS 3 Zrotation Xrotation Yrotation
                    End Site
                    {
                      OFFSET 0 0 0
                    }
                  }
                }
              }
            }
          }
        }
      }
    }
  }
  JOINT RightUpLeg
  {
    OFFSET -7.35773 -1.34921 -1.13181
    CHANNELS 3 Zrotation Xrotation Yrotation
    JOINT RightUpLegRoll
    {
      OFFSET 0 18.9168 0
      CHANNELS 3 Zrotation Xrotation Yrotation
      JOINT RightLeg
      {
        OFFSET 0 -23.4256 0
        CHANNELS 3 Zrotation Xrotation Yrotation
        JOINT RightLegRoll
        {
          OFFSET 0 23.5023 0
          CHANNELS 3 Zrotation Xrotation Yrotation
          JOINT RightFoot
          {
            OFFSET 0 19.5617 0
            CHANNELS 3 Zrotation Xrotation Yrotation
            JOINT RightToeBase
            {
              OFFSET 0 16.3526 0
              CHANNELS 3 Zrotation Xrotation Yrotation
              End Site
              {
                OFFSET 0.00693125 7.91943 -0.912837
              }
            }
          }
        }
      }
    }
  }
  JOINT LeftUpLeg
  {
    OFFSET 7.35773 -1.34921 -1.13181
    CHANNELS 3 Zrotation Xrotation Yrotation
    JOINT LeftUpLegRoll
    {
      OFFSET 0 18.9169 0
      CHANNELS 3 Zrotation Xrotation Yrotation
      JOINT LeftLeg
      {
        OFFSET 0 23.4255 0
        CHANNELS 3 Zrotation Xrotation Yrotation
        JOINT LeftLegRoll
        {
          OFFSET 0 23.7195 0
          CHANNELS 3 Zrotation Xrotation Yrotation
          JOINT LeftFoot
          {
            OFFSET 0 19.3444 0
            CHANNELS 3 Zrotation Xrotation Yrotation
            JOINT LeftToeBase
            {
              OFFSET 0 16.3526 0
              CHANNELS 3 Zrotation Xrotation Yrotation
              End Site
              {
                OFFSET -0.0310629 7.91944 -0.912836
              }
            }
          }
        }
      }
    }
  }
}
MOTION
Frames: 6
Frame Time: 0.00208333
54.8852 99.3687 14.481 -1.88945 -5.96082 94.4066 -0.90264 -1.57941 0.74429 -1.79093 0.831219 1.58054 -1.81092 2.47553 1.61119 -19.7233 10.8837 -8.00449 26.5845 -0.547802 -10.2335 26.8631 -5.2107 -0.743672 174.868 70.0391 -50.6215 6.58115e-006 -4.86494e-006 9.17233e-006 -12.1117 25.9534 6.9219 -1.67972e-005 4.12497e-005 -3.00406 8.02912 -4.95133 0.697533 -69.8868 -5.88586 4.21312 -83.0008 36.1043 31.3563 -6.36111e-015 -1.59028e-015 -1.59028e-014 155.336 77.1918 -142.389 3.04925e-006 7.16896e-008 3 -8.0289 -4.95152 -0.697743 176.652 0.656667 7.44681 180 7.01386e-015 178.368 172.957 35.6847 -179.314 -1.00654e-006 -5.91233e-006 0.623725 -17.2852 66.4178 18.3032 8.13209 25.2329 -3.48586 -173.211 14.6262 1.4065 4.54188e-006 -4.6773e-006 -0.940378 -1.92247 -14.0216 0.678791 -1.36834e-006 -2.57008e-006 -0.224389 19.6935 69.146 -20.5336 -8.13652 25.2327 3.48775 
54.9039 99.3672 14.5307 -1.88554 -6.01065 94.5589 -0.898425 -1.55666 0.745916 -1.78284 0.876753 1.58369 -1.80288 2.52107 1.61423 -19.9662 10.7136 -8.03676 26.881 -0.459184 -10.2909 26.7522 -5.08433 -0.600276 174.773 69.4073 -50.832 6.58115e-006 -4.86494e-006 9.17233e-006 -11.4893 25.8205 6.50044 -1.67972e-005 4.12497e-005 -3.00406 8.02912 -4.95133 0.697533 -69.9348 -5.93304 4.23961 -83.0144 35.9087 31.2334 -9.54166e-015 -3.18055e-015 -1.59028e-014 155.116 77.2802 -142.212 3.04925e-006 7.16896e-008 3 -8.0289 -4.95152 -0.697743 176.637 0.788252 7.48809 180 7.01386e-015 178.368 172.921 35.839 -179.295 -1.00654e-006 -5.91233e-006 0.627078 -17.2818 66.4123 18.2996 8.13211 25.2329 -3.48587 -173.169 14.6405 1.3917 4.54188e-006 -4.6773e-006 -0.94029 -1.90623 -14.0224 0.681818 -1.36834e-006 -2.57008e-006 -0.225026 19.6987 69.1519 -20.5393 -8.13652 25.2327 3.48775 
54.9364 99.3731 14.5448 -1.88314 -6.06317 94.7139 -0.893371 -1.53461 0.747834 -1.77305 0.920901 1.58733 -1.79315 2.56522 1.61772 -20.1909 10.5576 -8.07555 27.1627 -0.387785 -10.3494 26.6601 -4.96743 -0.467942 174.688 68.8097 -51.0532 6.58115e-006 -4.86494e-006 9.17233e-006 -10.8881 25.6961 6.09865 -1.67972e-005 4.12497e-005 -3.00406 8.02912 -4.95133 0.697533 -69.9751 -5.96905 4.25988 -83.0385 35.7034 31.1092 6.36111e-015 -2.70347e-014 9.54166e-015 154.89 77.3705 -142.032 3.04925e-006 7.16896e-008 3 -8.0289 -4.95152 -0.697743 176.626 0.920513 7.5296 180 7.01386e-015 178.367 172.881 35.9906 -179.275 -1.00654e-006 -5.91233e-006 0.630522 -17.2782 66.4064 18.2957 8.13214 25.2329 -3.48588 -173.127 14.6616 1.38336 4.54188e-006 -4.6773e-006 -0.940204 -1.8817 -14.0298 0.68663 -1.36834e-006 -2.57008e-006 -0.225907 19.7059 69.1598 -20.547 -8.13652 25.2327 3.48775 
54.9706 99.3727 14.5826 -1.88093 -6.12268 94.8722 -0.887665 -1.51229 0.749996 -1.76195 0.96561 1.59139 -1.78212 2.60994 1.62161 -20.3961 10.406 -8.12209 27.4344 -0.330216 -10.4089 26.5885 -4.85394 -0.33962 174.634 68.2416 -51.3066 6.58115e-006 -4.86494e-006 9.17233e-006 -10.2876 25.5954 5.71207 -1.67972e-005 4.12497e-005 -3.00406 8.02912 -4.95133 0.697533 -70.004 -6.00029 4.27711 -83.0781 35.4958 30.9875 -1.27222e-014 -7.95139e-015 -1.59028e-014 154.659 77.4628 -141.847 3.04925e-006 7.16896e-008 3 -8.0289 -4.95152 -0.697743 176.622 1.0529 7.5703 180 7.01386e-015 178.367 172.837 36.1403 -179.253 -1.00654e-006 -5.91233e-006 0.634089 -17.2738 66.3994 18.2914 8.13216 25.2329 -3.48589 -173.083 14.6891 1.37814 4.54188e-006 -4.6773e-006 -0.940119 -1.84967 -14.0453 0.69301 -1.36834e-006 -2.57008e-006 -0.227046 19.7152 69.17 -20.557 -8.13652 25.2327 3.48775 
54.9947 99.3774 14.6148 -1.87872 -6.18814 95.0336 -0.881362 -1.48973 0.75233 -1.74966 1.01079 1.59574 -1.7699 2.65512 1.62577 -20.5837 10.2585 -8.17531 27.6962 -0.284922 -10.4691 26.537 -4.74374 -0.215412 174.604 67.7016 -51.5844 6.58115e-006 -4.86494e-006 9.17233e-006 -9.6892 25.5171 5.34021 -1.67972e-005 4.12497e-005 -3.00406 8.02912 -4.95133 0.697533 -70.0228 -6.02718 4.29159 -83.1313 35.2857 30.8671 -6.36111e-015 -1.90833e-014 -0 154.422 77.5575 -141.658 3.04925e-006 7.16896e-008 3 -8.0289 -4.95152 -0.697743 176.624 1.18515 7.61004 180 7.01386e-015 178.367 172.789 36.2881 -179.229 -1.00654e-006 -5.91233e-006 0.637752 -17.2688 66.3915 18.2867 8.13218 25.2329 -3.4859 -173.037 14.7222 1.37552 4.54188e-006 -4.6773e-006 -0.940035 -1.81121 -14.068 0.700744 -1.36834e-006 -2.57008e-006 -0.228409 19.7265 69.1822 -20.5691 -8.13652 25.2327 3.48775 
55.0145 99.3762 14.6485 -1.87637 -6.2585 95.1977 -0.874515 -1.46698 0.754761 -1.73628 1.05636 1.60022 -1.75659 2.70069 1.63005 -20.7558 10.115 -8.23415 27.9482 -0.250346 -10.53 26.5053 -4.63671 -0.0954182 174.594 67.188 -51.8799 6.58115e-006 -4.86494e-006 9.17233e-006 -9.09463 25.4599 4.98259 -1.67972e-005 4.12497e-005 -3.00406 8.02912 -4.95133 0.697533 -70.0325 -6.05017 4.30359 -83.1962 35.0726 30.7471 -1.59028e-014 -4.77083e-015 -1.27222e-014 154.18 77.655 -141.466 3.04925e-006 7.16896e-008 3 -8.0289 -4.95152 -0.697743 176.631 1.31699 7.64869 180 7.01386e-015 178.366 172.738 36.4336 -179.204 -1.00654e-006 -5.91233e-006 0.641482 -17.2633 66.3829 18.2817 8.13221 25.2329 -3.48591 -172.988 14.7603 1.37496 4.54188e-006 -4.6773e-006 -0.939952 -1.76741 -14.0971 0.709619 -1.36834e-006 -2.57008e-006 -0.229965 19.7392 69.196 -20.5829 -8.13652 25.2327 3.48775 
